<svg width="22" height="26" viewBox="0 0 22 26" fill="none" xmlns="http://www.w3.org/2000/svg">
<path d="M13.166 24.5492C16.2435 21.8408 21.7186 16.3073 21.7186 11.2294C21.7186 8.41981 20.6025 5.72526 18.6158 3.73856C16.6291 1.75186 13.9346 0.635742 11.1249 0.635742C8.31531 0.635742 5.62077 1.75186 3.63407 3.73856C1.64737 5.72526 0.53125 8.41981 0.53125 11.2294C0.53125 16.3073 6.00465 21.8408 9.08388 24.5492C9.64555 25.0505 10.3721 25.3276 11.1249 25.3276C11.8778 25.3276 12.6043 25.0505 13.166 24.5492ZM7.59371 11.2294C7.59371 10.2929 7.96575 9.39471 8.62798 8.73247C9.29021 8.07024 10.1884 7.6982 11.1249 7.6982C12.0615 7.6982 12.9597 8.07024 13.6219 8.73247C14.2841 9.39471 14.6562 10.2929 14.6562 11.2294C14.6562 12.166 14.2841 13.0641 13.6219 13.7264C12.9597 14.3886 12.0615 14.7607 11.1249 14.7607C10.1884 14.7607 9.29021 14.3886 8.62798 13.7264C7.96575 13.0641 7.59371 12.166 7.59371 11.2294Z" fill="#2F6D5F"/>
</svg>
