<svg width="22" height="18" viewBox="0 0 22 18" fill="none" xmlns="http://www.w3.org/2000/svg">
<path d="M4.06248 0.296875C3.12594 0.296875 2.22776 0.668914 1.56552 1.33115C0.903289 1.99338 0.53125 2.89156 0.53125 3.8281V4.18299L11.1249 9.88769L21.7186 4.18476V3.8281C21.7186 2.89156 21.3466 1.99338 20.6843 1.33115C20.0221 0.668914 19.1239 0.296875 18.1874 0.296875H4.06248ZM21.7186 6.18873L11.5434 11.6674C11.4148 11.7367 11.271 11.7729 11.1249 11.7729C10.9789 11.7729 10.8351 11.7367 10.7065 11.6674L0.53125 6.18873V14.4218C0.53125 15.3583 0.903289 16.2565 1.56552 16.9187C2.22776 17.581 3.12594 17.953 4.06248 17.953H18.1874C19.1239 17.953 20.0221 17.581 20.6843 16.9187C21.3466 16.2565 21.7186 15.3583 21.7186 14.4218V6.18873Z" fill="#2F6D5F"/>
</svg>
