<svg width="19" height="25" viewBox="0 0 19 25" fill="none" xmlns="http://www.w3.org/2000/svg">
<path d="M6.92736 10.8989L8.82363 9.16156C9.34213 8.68558 9.70656 8.06552 9.87015 7.38095C10.0337 6.69639 9.98903 5.97855 9.74175 5.31958L8.9331 3.16023C8.63098 2.35409 8.03288 1.69345 7.26065 1.31291C6.48843 0.932372 5.60017 0.860566 4.77684 1.11212C1.74705 2.03907 -0.5818 4.85522 0.13504 8.1993C0.606459 10.3993 1.50869 13.1607 3.2178 16.0987C4.93045 19.0437 6.88675 21.2189 8.56408 22.748C11.096 25.0521 14.7155 24.4765 17.0443 22.3048C17.6686 21.7227 18.0474 20.9245 18.1035 20.0728C18.1596 19.2212 17.8888 18.3802 17.3462 17.7213L15.8631 15.9203C15.4158 15.3757 14.8158 14.9774 14.1402 14.7767C13.4647 14.5759 12.7445 14.5819 12.0724 14.7939L9.62168 15.5654C8.9888 14.9123 8.43419 14.1876 7.96907 13.4061C7.52013 12.6157 7.17026 11.7731 6.92736 10.8972V10.8989Z" fill="#2F6D5F"/>
</svg>
